Coordinates
version=1
nRows=17
nColumns=40
inDegrees=yes

Units are S.I. units (second, meters, Newtons, ...)
If the header above contains a line with 'inDegrees', this indicates whether rotational values are in degrees (yes) or radians (no).

endheader
time	pelvis_tilt	pelvis_list	pelvis_rotation	pelvis_tx	pelvis_ty	pelvis_tz	hip_flexion_r	hip_adduction_r	hip_rotation_r	knee_angle_r	knee_angle_r_beta	ankle_angle_r	subtalar_angle_r	mtp_angle_r	hip_flexion_l	hip_adduction_l	hip_rotation_l	knee_angle_l	knee_angle_l_beta	ankle_angle_l	subtalar_angle_l	mtp_angle_l	lumbar_extension	lumbar_bending	lumbar_rotation	arm_flex_r	arm_add_r	arm_rot_r	elbow_flex_r	pro_sup_r	wrist_flex_r	wrist_dev_r	arm_flex_l	arm_add_l	arm_rot_l	elbow_flex_l	pro_sup_l	wrist_flex_l	wrist_dev_l
      2.00000000	     -8.60512322	     -2.38641386	     -6.24914030	     -0.27246464	      1.04485953	     -1.04419738	     17.11307975	     -7.44246311	    -16.18343664	     92.87417490	      1.62096014	    -17.35055654	      0.00000000	      0.00000000	     15.92013169	      0.29066783	     -8.77463489	     15.95945473	      0.27854503	     -3.48536893	      0.00000000	      0.00000000	     -3.05014299	     -1.35943748	      6.34228891	     71.16777982	    -29.23571851	     31.74683748	     63.05742120	     85.44325631	      0.00000000	      0.00000000	     78.23374555	    -24.94456094	     41.54421439	     48.03459503	     81.36058663	      0.00000000	      0.00000000
      2.00500000	     -8.66546835	     -2.35117323	     -6.25098227	     -0.27282783	      1.04453107	     -1.04416067	     17.15844245	     -7.43316950	    -16.15705741	     92.85391343	      1.62060651	    -17.32018573	      0.00000000	      0.00000000	     16.11741143	      0.28986616	     -8.85407212	     16.21232862	      0.28295851	     -3.34743733	      0.00000000	      0.00000000	     -3.05359122	     -1.37877752	      6.28678717	     71.42665567	    -29.05481802	     31.99444578	     62.75169221	     85.58755459	      0.00000000	      0.00000000	     78.36836521	    -25.10379510	     41.91875316	     48.04143297	     80.54883869	      0.00000000	      0.00000000
      2.01000000	     -8.67369392	     -2.35633183	     -6.24615073	     -0.27304773	      1.04438618	     -1.04414685	     17.11012508	     -7.40367159	    -16.15610500	     92.78016576	      1.61931937	    -17.33526337	      0.00000000	      0.00000000	     16.21584676	      0.26888988	     -8.85281802	     16.36914271	      0.28569544	     -3.29758522	      0.00000000	      0.00000000	     -3.14384084	     -1.40097892	      6.37358751	     71.42429623	    -29.23899427	     31.99375334	     62.92412108	     85.26806690	      0.00000000	      0.00000000	     78.43235421	    -24.94989332	     41.56780154	     47.91173826	     82.39535452	      0.00000000	      0.00000000
      2.01500000	     -8.72492859	     -2.39985586	     -6.21236022	     -0.27340261	      1.04413629	     -1.04413263	     17.09015314	     -7.33014964	    -16.20072372	     92.70974176	      1.61809024	    -17.33552093	      0.00000000	      0.00000000	     16.39397353	      0.19869835	     -8.81898989	     16.59648516	      0.28966331	     -3.18334685	      0.00000000	      0.00000000	     -3.16912097	     -1.34410468	      6.32923835	     71.54968038	    -29.19461459	     32.04297156	     62.82805858	     85.48782124	      0.00000000	      0.00000000	     78.50501347	    -25.00624962	     41.74313083	     47.92588741	     81.43218172	      0.00000000	      0.00000000
      2.02000000	     -8.78106656	     -2.35196546	     -6.24731034	     -0.27368785	      1.04384931	     -1.04412443	     17.12581988	     -7.34977557	    -16.14431190	     92.68326551	      1.61762814	    -17.36743918	      0.00000000	      0.00000000	     16.55155476	      0.21633071	     -8.87248731	     16.74942461	      0.29233261	     -3.12361874	      0.00000000	      0.00000000	     -3.18535240	     -1.39277016	      6.35279213	     71.56100994	    -29.23894619	     32.00251559	     62.93422439	     85.15626950	      0.00000000	      0.00000000	     78.50283714	    -25.00362798	     41.45108206	     47.92209986	     82.41811524	      0.00000000	      0.00000000
      2.02500000	     -8.85391563	     -2.32363990	     -6.24356019	     -0.27408901	      1.04349369	     -1.04411899	     17.19272734	     -7.33330161	    -16.10698397	     92.67864556	      1.61754751	    -17.32406951	      0.00000000	      0.00000000	     16.77644868	      0.20719872	     -8.92468333	     17.01062084	      0.29689134	     -3.01045185	      0.00000000	      0.00000000	     -3.19703177	     -1.42299446	      6.36347714	     71.63616778	    -29.24080447	     31.99040778	     62.91725736	     85.27302639	      0.00000000	      0.00000000	     78.60963190	    -25.04847555	     41.65936182	     47.94885003	     81.83853813	      0.00000000	      0.00000000
      2.03000000	     -8.95331737	     -2.29864855	     -6.22796349	     -0.27451866	      1.04309218	     -1.04412573	     17.27518920	     -7.34394420	    -16.12238141	     92.68205620	      1.61760704	    -17.30597284	      0.00000000	      0.00000000	     17.03799657	      0.20273950	     -8.90713716	     17.27420131	      0.30149169	     -2.93145349	      0.00000000	      0.00000000	     -3.16377765	     -1.43994867	      6.33253521	     71.78807381	    -29.17835066	     32.11101954	     62.75403344	     85.43737033	      0.00000000	      0.00000000	     78.74400144	    -25.12190728	     42.04694198	     47.92341520	     80.65100310	      0.00000000	      0.00000000
      2.03500000	     -8.99260809	     -2.25016778	     -6.24529465	     -0.27492630	      1.04282241	     -1.04412564	     17.30642087	     -7.34622727	    -16.04694659	     92.65460627	      1.61712795	    -17.31041811	      0.00000000	      0.00000000	     17.18973342	      0.22630873	     -8.95875029	     17.42654591	      0.30415060	     -2.88870948	      0.00000000	      0.00000000	     -3.21654954	     -1.49608695	      6.39990215	     71.86047784	    -29.26733483	     32.17645591	     62.82988105	     85.21327742	      0.00000000	      0.00000000	     78.73557843	    -25.00536513	     41.51997302	     47.87138137	     82.34145413	      0.00000000	      0.00000000
      2.04000000	     -9.02665037	     -2.23739448	     -6.23882260	     -0.27532075	      1.04255004	     -1.04411356	     17.30728364	     -7.32034384	    -16.00974051	     92.62464434	      1.61660501	    -17.27690207	      0.00000000	      0.00000000	     17.36856467	      0.21094508	     -8.97458278	     17.67566326	      0.30849852	     -2.82414402	      0.00000000	      0.00000000	     -3.27489986	     -1.50860290	      6.40604925	     71.96537988	    -29.26270408	     32.20992834	     62.79115685	     85.27899747	      0.00000000	      0.00000000	     78.81087600	    -24.99509362	     41.53925219	     47.81648311	     82.13069831	      0.00000000	      0.00000000
      2.04500000	     -9.12438113	     -2.21219712	     -6.23459520	     -0.27556737	      1.04215034	     -1.04417823	     17.35479607	     -7.32652609	    -15.99481106	     92.57717880	      1.61577658	    -17.30424312	      0.00000000	      0.00000000	     17.59889637	      0.20747048	     -8.96946725	     17.88906337	      0.31222306	     -2.74044762	      0.00000000	      0.00000000	     -3.24280037	     -1.53910248	      6.51208466	     71.94232104	    -29.42393172	     32.11107967	     62.90106745	     85.45061675	      0.00000000	      0.00000000	     78.90570269	    -24.85763932	     41.69797860	     47.75607668	     81.14685345	      0.00000000	      0.00000000
      2.05000000	     -9.17813638	     -2.21383089	     -6.21093513	     -0.27585310	      1.04179710	     -1.04419833	     17.34708217	     -7.29994982	    -16.00749545	     92.52493201	      1.61486470	    -17.33216739	      0.00000000	      0.00000000	     17.80254913	      0.17914842	     -8.99567588	     18.16726378	      0.31707857	     -2.62217185	      0.00000000	      0.00000000	     -3.26008254	     -1.51568123	      6.43979237	     72.10353521	    -29.31624550	     32.29753751	     62.76579100	     85.16711975	      0.00000000	      0.00000000	     78.90054672	    -24.94759259	     41.46183851	     47.75151881	     82.47435368	      0.00000000	      0.00000000
      2.05500000	     -9.23498477	     -2.22897963	     -6.14922763	     -0.27620505	      1.04142123	     -1.04428605	     17.36602581	     -7.26575255	    -16.04538753	     92.51766574	      1.61473788	    -17.27597526	      0.00000000	      0.00000000	     18.03323388	      0.14386148	     -8.96524644	     18.46644520	      0.32230027	     -2.49682712	      0.00000000	      0.00000000	     -3.29875551	     -1.49981092	      6.41647688	     72.21961913	    -29.37447843	     32.36977755	     62.76714572	     85.33445799	      0.00000000	      0.00000000	     78.98980816	    -24.92290369	     41.53324124	     47.71400377	     82.14219283	      0.00000000	      0.00000000
      2.06000000	     -9.30480392	     -2.20760677	     -6.17388989	     -0.27648820	      1.04097525	     -1.04425196	     17.39076693	     -7.24346741	    -15.99131976	     92.47607648	      1.61401201	    -17.25957799	      0.00000000	      0.00000000	     18.25854874	      0.12340887	     -9.01990407	     18.74896928	      0.32723125	     -2.32717039	      0.00000000	      0.00000000	     -3.29083569	     -1.52603448	      6.48141048	     72.26501167	    -29.40203575	     32.35602493	     62.72913405	     85.38501937	      0.00000000	      0.00000000	     79.17139392	    -24.89213389	     41.93629516	     47.60266487	     81.26597029	      0.00000000	      0.00000000
      2.06500000	     -9.39180580	     -2.13812263	     -6.14835834	     -0.27688166	      1.04049707	     -1.04437047	     17.46141727	     -7.31635201	    -15.97639899	     92.47824068	      1.61404979	    -17.33020755	      0.00000000	      0.00000000	     18.49119401	      0.18371669	     -9.00383120	     18.96316945	      0.33096974	     -2.30018122	      0.00000000	      0.00000000	     -3.27013007	     -1.58087572	      6.49808174	     72.36471484	    -29.44156231	     32.41070282	     62.72695855	     85.51635151	      0.00000000	      0.00000000	     79.17538003	    -24.85863106	     41.82326542	     47.63117585	     80.80258118	      0.00000000	      0.00000000
      2.07000000	     -9.44403689	     -2.12446749	     -6.11793042	     -0.27723176	      1.04003444	     -1.04444109	     17.48313499	     -7.30058658	    -15.96367363	     92.48110862	      1.61409984	    -17.30715633	      0.00000000	      0.00000000	     18.73446623	      0.17575606	     -9.00849631	     19.30359531	      0.33691130	     -2.15651128	      0.00000000	      0.00000000	     -3.30858749	     -1.56870796	      6.40351490	     72.54556583	    -29.34008606	     32.58265557	     62.64698007	     85.20631009	      0.00000000	      0.00000000	     79.20441940	    -24.97639574	     41.57076028	     47.66558972	     82.25076441	      0.00000000	      0.00000000
      2.07500000	     -9.46328126	     -2.08643026	     -6.14004870	     -0.27745963	      1.03964799	     -1.04451950	     17.44455221	     -7.32291712	    -15.90368665	     92.44771122	      1.61351695	    -17.26871869	      0.00000000	      0.00000000	     18.87783512	      0.19217604	     -9.07975156	     19.52518694	      0.34077880	     -2.01357280	      0.00000000	      0.00000000	     -3.36806497	     -1.59896551	      6.41314962	     72.66610014	    -29.33430594	     32.68397115	     62.62270547	     85.32918370	      0.00000000	      0.00000000	     79.26227265	    -24.99012210	     41.56305430	     47.64258254	     81.93890620	      0.00000000	      0.00000000
      2.08000000	     -9.53400979	     -2.06767920	     -6.08883682	     -0.27781621	      1.03913955	     -1.04460689	     17.46158292	     -7.33604407	    -15.92488564	     92.44752057	      1.61351362	    -17.17109977	      0.00000000	      0.00000000	     19.12002028	      0.19337869	     -9.04574553	     19.80849598	      0.34572347	     -1.91018932	      0.00000000	      0.00000000	     -3.36991919	     -1.62613886	      6.44522935	     72.69671339	    -29.40474114	     32.59576914	     62.60817951	     85.43543356	      0.00000000	      0.00000000	     79.42843112	    -24.90798358	     41.85973359	     47.49361900	     81.31037520	      0.00000000	      0.00000000
